<svg width="1441" height="191" viewBox="0 0 1441 191" fill="none" xmlns="http://www.w3.org/2000/svg">
<path d="M326.5 0H0.500061L0.500091 190.5C0.500091 190.5 34.14 181.143 55.5 174.5C85.8235 165.069 108.955 155.441 131.884 145.897C156.33 135.722 180.545 125.642 213 116C278.393 96.5719 315.851 86.7896 383.5 78C444.474 70.0778 479.57 70.2289 540.482 70.4913L542.5 70.5C637.134 70.9061 690.262 77.506 784 90.5C857.864 100.739 935.438 119.07 994.779 133.093C1026.52 140.595 1053.05 146.863 1071 150C1122.5 159 1384.5 190.5 1440.5 166V0H326.5Z" fill="#26A66E"/>
<path d="M326.5 0H0.500061L0.500091 190.5C0.500091 190.5 34.14 181.143 55.5 174.5C85.8235 165.069 108.955 155.441 131.884 145.897C156.33 135.722 180.545 125.642 213 116C278.393 96.5719 315.851 86.7896 383.5 78C444.474 70.0778 479.57 70.2289 540.482 70.4913L542.5 70.5C637.134 70.9061 690.262 77.506 784 90.5C857.864 100.739 935.438 119.07 994.779 133.093C1026.52 140.595 1053.05 146.863 1071 150C1122.5 159 1384.5 190.5 1440.5 166V0H326.5Z" stroke="white"/>
</svg>
